<svg width="221" height="33" viewBox="0 0 221 33" fill="none" xmlns="http://www.w3.org/2000/svg">
<g clip-path="url(#clip0_1015_3501)">
<path fill-rule="evenodd" clip-rule="evenodd" d="M-143 -216C-154.046 -216 -163 -207.046 -163 -196V128C-163 139.046 -154.046 148 -143 148H234C245.046 148 254 139.046 254 128V-196C254 -207.046 245.046 -216 234 -216H-143ZM214 -196C225.046 -196 234 -187.046 234 -176V21C234 27.6274 228.627 33 222 33C215.373 33 210.209 27.4531 207.85 21.2595C203.118 8.83066 191.09 0 177 0H55C43.7604 0 33.8331 5.61909 27.8743 14.2013C21.5746 23.2745 13.0457 33 2 33H-123C-134.046 33 -143 24.0457 -143 13V-176C-143 -187.046 -134.046 -196 -123 -196H214Z" fill="white"/>
</g>
<defs>
<clipPath id="clip0_1015_3501">
<rect width="221" height="33" fill="white"/>
</clipPath>
</defs>
</svg>
