<svg width="202" height="484" viewBox="0 0 202 484" fill="none" xmlns="http://www.w3.org/2000/svg">
<path d="M59.8883 483.647C45.4442 463.58 61.0664 384.824 75.3129 355.04C86.225 332.227 108.966 328.818 108.966 306.729C108.966 280.742 86.3707 284.842 69.1568 241.326C56.5226 209.388 72.2864 171.58 75.9347 162.829C90.1671 128.694 111.451 120.565 107.98 98.6203C105.459 82.5687 92.9893 80.0117 83.4377 55.9466C76.7883 39.1914 76.135 23.577 76.6431 12.8729" stroke="#474647" stroke-opacity="0.15" stroke-miterlimit="10"/>
<mask id="path-2-inside-1_479_11098" fill="white">
<path d="M90.2832 0C88.6429 13.8517 77.956 39.6841 62.3981 60.5424C51.5235 75.1219 39.7754 80.3779 31.0731 93.4248C26.3099 100.576 22.6502 106.158 20.6457 114.488C19.3724 120.023 18.9882 125.724 19.5073 131.38C19.8915 135.977 21.2743 139.752 22.8248 143.338C24.7415 147.569 27.01 151.632 29.6064 155.485C35.0611 164.074 64.9719 201.026 69.3113 236.183C74.0484 274.561 43.7154 331.828 43.7154 331.828C43.7154 331.828 35.4662 351.469 36.0373 364.604C36.5891 377.292 45.8789 395.594 45.8789 395.594C45.8789 395.594 78.3278 462.902 85.4796 478"/>
</mask>
<path d="M62.3981 60.5424L63.1997 61.1403L62.3981 60.5424ZM31.0731 93.4248L30.2412 92.87L30.2408 92.8705L31.0731 93.4248ZM20.6457 114.488L19.6734 114.254L19.6712 114.264L20.6457 114.488ZM19.5073 131.38L20.5039 131.296L20.5031 131.288L19.5073 131.38ZM22.8248 143.338L21.9069 143.735L21.9103 143.743L21.9139 143.751L22.8248 143.338ZM29.6064 155.485L30.4506 154.949L30.4433 154.937L30.4357 154.926L29.6064 155.485ZM69.3113 236.183L68.3188 236.305L69.3113 236.183ZM43.7154 331.828L42.8317 331.359L42.8108 331.399L42.7935 331.44L43.7154 331.828ZM36.0373 364.604L35.0383 364.648L36.0373 364.604ZM45.8789 395.594L46.7797 395.16L46.7753 395.151L46.7706 395.142L45.8789 395.594ZM89.2901 -0.117595C88.4869 6.66599 85.4489 16.4823 80.6467 27.236C75.8512 37.9744 69.3259 49.5818 61.5965 59.9446L63.1997 61.1403C71.0281 50.6448 77.6252 38.9068 82.4728 28.0515C87.3137 17.2114 90.4393 7.18569 91.2763 0.117595L89.2901 -0.117595ZM61.5965 59.9446C56.2285 67.1413 50.6467 72.0384 45.258 76.8097C39.8784 81.573 34.6729 86.2256 30.2412 92.87L31.905 93.9797C36.1755 87.5772 41.1952 83.0784 46.5839 78.307C51.9635 73.5437 57.693 68.523 63.1997 61.1403L61.5965 59.9446ZM30.2408 92.8705C25.4801 100.018 21.7241 105.732 19.6735 114.254L21.618 114.722C23.5764 106.583 27.1397 101.134 31.9054 93.9792L30.2408 92.8705ZM19.6712 114.264C18.3741 119.902 17.9826 125.71 18.5115 131.471L20.5031 131.288C19.9937 125.739 20.3708 120.144 21.6203 114.712L19.6712 114.264ZM18.5108 131.463C18.9083 136.221 20.3405 140.112 21.9069 143.735L23.7427 142.941C22.2081 139.392 20.8746 135.734 20.5039 131.296L18.5108 131.463ZM21.9139 143.751C23.8537 148.033 26.1495 152.145 28.7772 156.044L30.4357 154.926C27.8705 151.12 25.6293 147.106 23.7357 142.925L21.9139 143.751ZM28.7623 156.021C30.1401 158.19 33.072 162.167 36.6808 167.345C40.3123 172.556 44.6829 179.056 49.0164 186.38C57.6961 201.049 66.1746 218.933 68.3188 236.305L70.3037 236.06C68.1086 218.276 59.4619 200.106 50.7377 185.362C46.3693 177.979 41.9682 171.434 38.3217 166.202C34.6525 160.937 31.8 157.074 30.4506 154.949L28.7623 156.021ZM68.3188 236.305C70.6561 255.241 64.3347 278.959 57.3506 298.054C53.867 307.578 50.235 315.909 47.4739 321.859C46.0935 324.834 44.9314 327.212 44.1151 328.845C43.7069 329.661 43.3853 330.292 43.166 330.717C43.0564 330.93 42.9725 331.091 42.9161 331.199C42.8879 331.253 42.8666 331.293 42.8524 331.32C42.8454 331.334 42.8401 331.344 42.8366 331.35C42.8349 331.354 42.8336 331.356 42.8328 331.357C42.8324 331.358 42.8321 331.359 42.8319 331.359C42.8318 331.359 42.8317 331.359 43.7154 331.828C44.5991 332.296 44.5993 332.295 44.5996 332.295C44.5999 332.294 44.6003 332.293 44.6008 332.292C44.6018 332.29 44.6033 332.288 44.6053 332.284C44.6092 332.277 44.6149 332.266 44.6223 332.252C44.6373 332.223 44.6595 332.181 44.6885 332.125C44.7467 332.014 44.8324 331.849 44.9438 331.633C45.1666 331.201 45.492 330.563 45.904 329.739C46.728 328.091 47.8987 325.695 49.288 322.701C52.0663 316.714 55.7215 308.33 59.2289 298.741C66.227 279.608 72.7035 255.503 70.3037 236.06L68.3188 236.305ZM43.7154 331.828C42.7935 331.44 42.7934 331.441 42.7933 331.441C42.7932 331.441 42.793 331.441 42.7929 331.442C42.7926 331.442 42.7921 331.444 42.7915 331.445C42.7904 331.448 42.7888 331.451 42.7867 331.457C42.7824 331.467 42.7762 331.482 42.7682 331.501C42.752 331.54 42.7284 331.597 42.6976 331.672C42.6362 331.822 42.5467 332.042 42.4332 332.327C42.2064 332.896 41.8837 333.721 41.4986 334.752C40.7288 336.813 39.7083 339.699 38.7054 342.999C36.7093 349.569 34.7449 357.9 35.0383 364.648L37.0364 364.561C36.7586 358.173 38.6333 350.116 40.619 343.581C41.607 340.329 42.6132 337.484 43.3722 335.452C43.7516 334.436 44.0689 333.624 44.2909 333.068C44.4019 332.789 44.4891 332.575 44.5482 332.431C44.5778 332.358 44.6004 332.304 44.6154 332.268C44.6229 332.25 44.6285 332.236 44.6322 332.227C44.6341 332.223 44.6354 332.22 44.6363 332.217C44.6367 332.216 44.6371 332.216 44.6372 332.215C44.6373 332.215 44.6374 332.215 44.6374 332.215C44.6374 332.215 44.6374 332.215 43.7154 331.828ZM35.0383 364.648C35.3217 371.165 37.835 379.041 40.2328 385.219C41.4374 388.323 42.6243 391.026 43.5101 392.954C43.9531 393.918 44.3213 394.689 44.5791 395.22C44.7081 395.486 44.8095 395.691 44.879 395.831C44.9137 395.901 44.9405 395.954 44.9587 395.99C44.9678 396.009 44.9748 396.022 44.9796 396.032C44.9819 396.037 44.9838 396.04 44.9851 396.043C44.9857 396.044 44.9862 396.045 44.9866 396.046C44.9867 396.046 44.9869 396.046 44.987 396.047C44.9871 396.047 44.9872 396.047 45.8789 395.594C46.7706 395.142 46.7706 395.142 46.7706 395.142C46.7706 395.142 46.7705 395.142 46.7704 395.141C46.7702 395.141 46.7699 395.14 46.7694 395.139C46.7684 395.137 46.7669 395.134 46.7648 395.13C46.7606 395.122 46.7543 395.109 46.7458 395.092C46.7288 395.059 46.7033 395.008 46.6699 394.941C46.603 394.806 46.5043 394.606 46.3782 394.346C46.1259 393.827 45.7639 393.069 45.3274 392.119C44.4541 390.218 43.284 387.553 42.0973 384.496C39.7121 378.35 37.3047 370.731 37.0364 364.561L35.0383 364.648ZM45.8789 395.594C44.9781 396.029 44.9783 396.029 44.9785 396.029C44.9787 396.03 44.9791 396.031 44.9796 396.032C44.9806 396.034 44.9821 396.037 44.984 396.041C44.988 396.049 44.9939 396.061 45.0017 396.077C45.0173 396.11 45.0406 396.158 45.0714 396.222C45.133 396.35 45.2246 396.54 45.3443 396.788C45.5837 397.285 45.9357 398.015 46.3863 398.95C47.2876 400.82 48.583 403.508 50.1599 406.781C53.3137 413.327 57.5932 422.212 62.0962 431.569C71.1031 450.285 81.0016 470.883 84.5758 478.428L86.3833 477.572C82.8057 470.019 72.9039 449.414 63.8984 430.702C59.3952 421.344 55.1156 412.459 51.9617 405.913C50.3847 402.64 49.0893 399.952 48.188 398.082C47.7374 397.147 47.3853 396.416 47.1459 395.92C47.0262 395.671 46.9346 395.481 46.873 395.354C46.8422 395.29 46.8189 395.241 46.8032 395.209C46.7954 395.193 46.7895 395.181 46.7856 395.172C46.7836 395.168 46.7822 395.165 46.7812 395.163C46.7807 395.162 46.7803 395.161 46.7801 395.161C46.7798 395.16 46.7797 395.16 45.8789 395.594Z" fill="#474647" fill-opacity="0.4" mask="url(#path-2-inside-1_479_11098)"/>
</svg>
