<svg width="1920" height="303" viewBox="0 0 1920 303" fill="none" xmlns="http://www.w3.org/2000/svg">
<mask id="path-1-inside-1_479_15681" fill="white">
<path d="M-47 0C12 7 122.031 52.6077 210.875 119.003C272.975 165.411 295.363 215.548 350.935 252.685C381.396 273.013 405.17 288.631 440.653 297.185C464.227 302.619 488.512 304.259 512.6 302.044C532.184 300.404 548.261 294.503 563.536 287.886C581.558 279.706 598.865 270.025 615.275 258.945C651.857 235.666 809.255 108.019 959 89.5C1122.47 69.2838 1366.39 198.733 1366.39 198.733C1366.39 198.733 1450.05 233.938 1506 231.5C1560.04 229.145 1638 189.5 1638 189.5C1638 189.5 1924.69 51.021 1989 20.5"/>
</mask>
<path d="M210.875 119.003L211.474 118.202L210.875 119.003ZM350.935 252.685L350.379 253.517L350.38 253.517L350.935 252.685ZM440.653 297.185L440.419 298.158L440.428 298.16L440.653 297.185ZM512.6 302.044L512.516 301.047L512.508 301.048L512.6 302.044ZM563.536 287.886L563.933 288.804L563.941 288.8L563.949 288.797L563.536 287.886ZM615.275 258.945L614.738 258.101L614.726 258.108L614.715 258.116L615.275 258.945ZM959 89.5L959.123 90.4924L959 89.5ZM1366.39 198.733L1365.92 199.616L1365.96 199.637L1366 199.655L1366.39 198.733ZM1506 231.5L1506.04 232.499L1506 231.5ZM1638 189.5L1637.57 188.6L1637.56 188.604L1637.55 188.609L1638 189.5ZM-47.1178 0.993035C-17.7603 4.47613 24.3926 17.5841 70.3377 38.141C116.267 58.6912 165.921 86.6559 210.277 119.804L211.474 118.202C166.985 84.9546 117.201 56.9179 71.1545 36.3154C25.1229 15.7198 -17.2397 2.52387 -46.8822 -0.993035L-47.1178 0.993035ZM210.277 119.804C241.234 142.939 262.294 167.001 282.604 189.983C302.906 212.956 322.473 234.867 350.379 253.517L351.491 251.854C323.826 233.366 304.412 211.64 284.102 188.658C263.8 165.685 242.617 141.475 211.474 118.202L210.277 119.804ZM350.38 253.517C380.837 273.842 404.744 289.557 440.419 298.157L440.887 296.213C405.596 287.705 381.955 272.184 351.49 251.854L350.38 253.517ZM440.428 298.16C464.106 303.618 488.498 305.265 512.691 303.039L512.508 301.048C488.527 303.254 464.348 301.621 440.878 296.211L440.428 298.16ZM512.683 303.04C532.427 301.387 548.622 295.436 563.933 288.804L563.138 286.968C547.9 293.569 531.94 299.421 512.516 301.047L512.683 303.04ZM563.949 288.797C582.023 280.594 599.379 270.885 615.834 259.773L614.715 258.116C598.352 269.165 581.094 278.819 563.123 286.975L563.949 288.797ZM615.811 259.788C624.979 253.955 641.733 241.572 663.93 226.073C686.159 210.55 713.921 191.849 745.211 173.298C807.814 136.184 884.457 99.7263 959.123 90.4924L958.877 88.5076C883.798 97.7925 806.869 134.418 744.191 171.577C712.842 190.163 685.036 208.895 662.785 224.433C640.501 239.993 623.861 252.296 614.738 258.101L615.811 259.788ZM959.123 90.4924C1040.6 80.4157 1142.26 107.646 1223.65 137.474C1264.33 152.38 1299.9 167.918 1325.3 179.729C1338 185.635 1348.16 190.608 1355.14 194.104C1358.63 195.852 1361.33 197.231 1363.15 198.173C1364.06 198.643 1364.76 199.005 1365.22 199.248C1365.45 199.37 1365.63 199.462 1365.75 199.524C1365.81 199.555 1365.85 199.578 1365.88 199.593C1365.89 199.601 1365.9 199.607 1365.91 199.611C1365.92 199.613 1365.92 199.614 1365.92 199.615C1365.92 199.616 1365.92 199.616 1366.39 198.733C1366.86 197.85 1366.86 197.849 1366.86 197.848C1366.85 197.847 1366.85 197.845 1366.85 197.843C1366.84 197.839 1366.83 197.833 1366.81 197.825C1366.78 197.809 1366.74 197.786 1366.68 197.755C1366.56 197.692 1366.38 197.599 1366.15 197.476C1365.68 197.231 1364.99 196.868 1364.07 196.396C1362.24 195.451 1359.54 194.068 1356.04 192.316C1349.04 188.812 1338.87 183.83 1326.15 177.916C1300.71 166.087 1265.08 150.526 1224.34 135.596C1142.91 105.754 1040.87 78.3681 958.877 88.5076L959.123 90.4924ZM1366.39 198.733C1366 199.655 1366 199.655 1366 199.655C1366.01 199.655 1366.01 199.656 1366.01 199.656C1366.01 199.658 1366.01 199.659 1366.02 199.661C1366.03 199.666 1366.05 199.672 1366.07 199.681C1366.11 199.698 1366.17 199.724 1366.25 199.757C1366.41 199.824 1366.65 199.923 1366.96 200.053C1367.59 200.311 1368.52 200.689 1369.72 201.169C1372.13 202.13 1375.62 203.498 1379.99 205.132C1388.72 208.4 1400.94 212.731 1414.92 216.987C1442.85 225.489 1477.89 233.726 1506.04 232.499L1505.96 230.501C1478.16 231.712 1443.4 223.565 1415.51 215.074C1401.58 210.833 1389.39 206.516 1380.69 203.259C1376.34 201.631 1372.86 200.268 1370.47 199.312C1369.27 198.835 1368.35 198.459 1367.72 198.203C1367.41 198.075 1367.18 197.976 1367.02 197.91C1366.94 197.877 1366.88 197.853 1366.84 197.836C1366.82 197.828 1366.8 197.821 1366.79 197.817C1366.79 197.815 1366.78 197.814 1366.78 197.813C1366.78 197.812 1366.78 197.812 1366.78 197.811C1366.78 197.811 1366.78 197.811 1366.39 198.733ZM1506.04 232.499C1533.24 231.314 1566.37 220.761 1592.63 210.549C1605.77 205.437 1617.23 200.4 1625.39 196.64C1629.48 194.76 1632.74 193.199 1634.98 192.107C1636.1 191.562 1636.97 191.133 1637.56 190.841C1637.85 190.695 1638.07 190.583 1638.22 190.507C1638.3 190.469 1638.36 190.44 1638.39 190.421C1638.41 190.411 1638.43 190.404 1638.44 190.399C1638.44 190.397 1638.45 190.395 1638.45 190.393C1638.45 190.393 1638.45 190.392 1638.45 190.392C1638.45 190.392 1638.45 190.391 1638 189.5C1637.55 188.609 1637.55 188.609 1637.55 188.609C1637.55 188.609 1637.54 188.61 1637.54 188.61C1637.54 188.611 1637.54 188.613 1637.53 188.615C1637.52 188.62 1637.51 188.627 1637.49 188.636C1637.45 188.655 1637.4 188.683 1637.33 188.721C1637.18 188.795 1636.96 188.906 1636.67 189.051C1636.08 189.34 1635.22 189.766 1634.11 190.309C1631.88 191.395 1628.63 192.95 1624.56 194.823C1616.42 198.57 1605 203.591 1591.9 208.685C1565.68 218.884 1532.81 229.331 1505.96 230.501L1506.04 232.499ZM1638 189.5C1638.43 190.4 1638.44 190.4 1638.44 190.399C1638.44 190.398 1638.44 190.396 1638.45 190.394C1638.46 190.39 1638.47 190.384 1638.49 190.375C1638.52 190.358 1638.57 190.333 1638.64 190.3C1638.78 190.233 1638.99 190.134 1639.26 190.002C1639.8 189.739 1640.61 189.349 1641.67 188.838C1643.79 187.816 1646.9 186.314 1650.88 184.391C1658.84 180.544 1670.29 175.016 1684.23 168.286C1712.12 154.827 1749.96 136.563 1789.82 117.346C1869.53 78.9106 1957.28 36.6623 1989.43 21.4034L1988.57 19.5966C1956.41 34.8587 1868.66 77.1104 1788.95 115.545C1749.09 134.762 1711.25 153.026 1683.37 166.485C1669.42 173.215 1657.97 178.743 1650.01 182.59C1646.03 184.513 1642.92 186.015 1640.8 187.037C1639.74 187.548 1638.93 187.938 1638.39 188.201C1638.12 188.333 1637.91 188.432 1637.77 188.499C1637.7 188.532 1637.65 188.558 1637.62 188.574C1637.6 188.583 1637.59 188.589 1637.58 188.593C1637.57 188.595 1637.57 188.597 1637.57 188.598C1637.57 188.599 1637.57 188.6 1638 189.5Z" fill="#474647" fill-opacity="0.4" mask="url(#path-1-inside-1_479_15681)"/>
</svg>
