<svg width="90" height="90" viewBox="0 0 90 90" fill="none" xmlns="http://www.w3.org/2000/svg">
<circle cx="45" cy="45" r="45" fill="white"/>
<circle cx="45" cy="45" r="25" fill="#474647"/>
<path d="M45 46C46.6569 46 48 44.6569 48 43C48 41.3431 46.6569 40 45 40C43.3431 40 42 41.3431 42 43C42 44.6569 43.3431 46 45 46Z" stroke="white" stroke-width="1.5" stroke-linecap="round" stroke-linejoin="round"/>
<path d="M45 35C42.8783 35 40.8434 35.8429 39.3431 37.3431C37.8429 38.8434 37 40.8783 37 43C37 44.892 37.402 46.13 38.5 47.5L45 55L51.5 47.5C52.598 46.13 53 44.892 53 43C53 40.8783 52.1571 38.8434 50.6569 37.3431C49.1566 35.8429 47.1217 35 45 35Z" stroke="white" stroke-width="1.5" stroke-linecap="round" stroke-linejoin="round"/>
</svg>
