<svg width="18" height="18" viewBox="0 0 18 18" fill="none" xmlns="http://www.w3.org/2000/svg">
<path fill-rule="evenodd" clip-rule="evenodd" d="M11.7841 12.5796C12.0038 12.7992 12.3599 12.7992 12.5796 12.5796C12.7993 12.3599 12.7993 12.0038 12.5796 11.7841L9.79537 8.99986L12.5796 6.21565C12.7992 5.99598 12.7992 5.63983 12.5796 5.42016C12.3599 5.20049 12.0038 5.20049 11.7841 5.42016L8.99987 8.20437L6.21563 5.42012C5.99596 5.20045 5.6398 5.20045 5.42013 5.42012C5.20046 5.63979 5.20046 5.99595 5.42013 6.21562L8.20438 8.99986L5.42012 11.7841C5.20045 12.0038 5.20045 12.3599 5.42012 12.5796C5.63979 12.7993 5.99595 12.7993 6.21562 12.5796L8.99987 9.79536L11.7841 12.5796Z" fill="#474647"/>
</svg>
