<svg width="24" height="24" viewBox="0 0 24 24" fill="none" xmlns="http://www.w3.org/2000/svg">
<path d="M4.72221 19.8382H13.8687V18.6596H4.72221C4.18151 18.6603 3.66265 18.4463 3.2795 18.0648C2.89636 17.6833 2.68024 17.1653 2.67857 16.6246V6.07563C2.68024 5.53493 2.89636 5.01698 3.2795 4.63545C3.66265 4.25393 4.18151 4.04001 4.72221 4.04063H6.97329V7.34653C6.97381 7.81523 7.16023 8.26459 7.49165 8.59601C7.82308 8.92744 8.27244 9.11386 8.74114 9.11438H12.7306C13.1993 9.11386 13.6487 8.92744 13.9801 8.59601C14.3115 8.26459 14.4979 7.81523 14.4985 7.34653V4.04063H16.7495C17.2902 4.04001 17.8091 4.25393 18.1922 4.63545C18.5754 5.01698 18.7915 5.53493 18.7932 6.07563V12.1857H19.9718V6.07563C19.9697 5.22248 19.6292 4.405 19.0252 3.80254C18.4211 3.20008 17.6027 2.86185 16.7495 2.86206H4.72221C3.86906 2.86185 3.05067 3.20008 2.44659 3.80254C1.84251 4.405 1.50208 5.22248 1.5 6.07563V16.6246C1.50208 17.4778 1.84251 18.2953 2.44659 18.8977C3.05067 19.5002 3.86906 19.8384 4.72221 19.8382ZM8.15186 4.04063H13.3199V7.34653C13.3197 7.50275 13.2575 7.65252 13.1471 7.76298C13.0366 7.87345 12.8868 7.9356 12.7306 7.93581H8.74114C8.58492 7.9356 8.43515 7.87345 8.32468 7.76298C8.21422 7.65252 8.15206 7.50275 8.15186 7.34653V4.04063Z" fill="white"/>
<path d="M4.63477 15.7359H8.26202V16.9145H4.63477V15.7359ZM4.63477 13.3772H9.75487V14.5557H4.63477V13.3772ZM19.1308 13.2695C18.2666 13.2695 17.4219 13.5258 16.7033 14.0059C15.9848 14.486 15.4247 15.1684 15.094 15.9668C14.7633 16.7652 14.6768 17.6437 14.8454 18.4913C15.014 19.3389 15.4301 20.1174 16.0412 20.7285C16.6523 21.3396 17.4308 21.7557 18.2784 21.9243C19.126 22.0929 20.0045 22.0064 20.8029 21.6756C21.6013 21.3449 22.2837 20.7849 22.7638 20.0664C23.2439 19.3478 23.5002 18.5031 23.5002 17.6389C23.4989 16.4804 23.0382 15.3698 22.219 14.5507C21.3999 13.7315 20.2892 13.2708 19.1308 13.2695ZM19.1308 20.8297C18.4997 20.8297 17.8828 20.6425 17.3581 20.2919C16.8334 19.9413 16.4244 19.443 16.1829 18.8599C15.9414 18.2769 15.8782 17.6353 16.0013 17.0164C16.1244 16.3974 16.4283 15.8289 16.8746 15.3827C17.3208 14.9364 17.8894 14.6325 18.5083 14.5094C19.1273 14.3863 19.7688 14.4495 20.3519 14.691C20.9349 14.9325 21.4332 15.3415 21.7838 15.8662C22.1344 16.3909 22.3216 17.0078 22.3216 17.6389C22.3207 18.4848 21.9842 19.2959 21.386 19.8941C20.7878 20.4923 19.9768 20.8287 19.1308 20.8297Z" fill="white"/>
<path d="M18.8869 17.7748L18.0725 16.9604L17.2393 17.7933L18.4705 19.0245C18.581 19.1348 18.7307 19.1968 18.8869 19.1968C19.0431 19.1968 19.1928 19.1348 19.3033 19.0245L21.5261 16.8021L20.6929 15.9692L18.8869 17.7748Z" fill="white"/>
</svg>
