<svg width="1920" height="1106" viewBox="0 0 1920 1106" fill="none" xmlns="http://www.w3.org/2000/svg">
<path d="M2010.39 603.272C1924.82 664.863 1589 598.249 1462 537.5C1364.73 490.97 1350.19 394 1256 394C1145.19 394 1162.67 490.349 977.115 563.751C840.929 617.624 679.711 550.406 642.397 534.849C496.844 474.161 462.178 383.407 368.605 398.207C300.16 408.956 289.257 462.127 186.641 502.855C115.196 531.209 48.6143 533.995 2.97132 531.828" stroke="#474647" stroke-opacity="0.15" stroke-miterlimit="10"/>
<mask id="path-2-inside-1_649_1265" fill="white">
<path d="M-50.5 362C8.5 369 118.531 414.608 207.375 481.003C269.475 527.411 291.863 577.548 347.435 614.685C377.896 635.013 401.67 650.631 437.153 659.185C460.727 664.619 485.012 666.259 509.1 664.044C528.684 662.404 544.761 656.503 560.036 649.886C578.058 641.706 595.365 632.025 611.775 620.945C648.357 597.666 805.755 470.019 955.5 451.5C1118.97 431.284 1362.89 560.733 1362.89 560.733C1362.89 560.733 1446.55 595.938 1502.5 593.5C1556.54 591.145 1634.5 551.5 1634.5 551.5C1634.5 551.5 1921.19 413.021 1985.5 382.5"/>
</mask>
<path d="M207.375 481.003L207.974 480.202L207.375 481.003ZM347.435 614.685L346.879 615.517L346.88 615.517L347.435 614.685ZM437.153 659.185L436.919 660.158L436.928 660.16L437.153 659.185ZM509.1 664.044L509.016 663.047L509.008 663.048L509.1 664.044ZM560.036 649.886L560.433 650.804L560.441 650.8L560.449 650.797L560.036 649.886ZM611.775 620.945L611.238 620.101L611.226 620.108L611.215 620.116L611.775 620.945ZM955.5 451.5L955.623 452.492L955.5 451.5ZM1362.89 560.733L1362.42 561.616L1362.46 561.637L1362.5 561.655L1362.89 560.733ZM1502.5 593.5L1502.54 594.499L1502.5 593.5ZM1634.5 551.5L1634.07 550.6L1634.06 550.604L1634.05 550.609L1634.5 551.5ZM-50.6178 362.993C-21.2603 366.476 20.8926 379.584 66.8377 400.141C112.767 420.691 162.421 448.656 206.777 481.804L207.974 480.202C163.485 446.955 113.701 418.918 67.6545 398.315C21.6229 377.72 -20.7397 364.524 -50.3822 361.007L-50.6178 362.993ZM206.777 481.804C237.734 504.939 258.794 529.001 279.104 551.983C299.406 574.956 318.973 596.867 346.879 615.517L347.991 613.854C320.326 595.366 300.912 573.64 280.602 550.658C260.3 527.685 239.117 503.475 207.974 480.202L206.777 481.804ZM346.88 615.517C377.337 635.842 401.244 651.557 436.919 660.157L437.387 658.213C402.096 649.705 378.455 634.184 347.99 613.854L346.88 615.517ZM436.928 660.16C460.606 665.618 484.998 667.265 509.191 665.039L509.008 663.048C485.027 665.254 460.848 663.621 437.378 658.211L436.928 660.16ZM509.183 665.04C528.927 663.387 545.122 657.436 560.433 650.804L559.638 648.968C544.4 655.569 528.44 661.421 509.016 663.047L509.183 665.04ZM560.449 650.797C578.523 642.594 595.879 632.885 612.334 621.773L611.215 620.116C594.852 631.165 577.594 640.819 559.623 648.975L560.449 650.797ZM612.311 621.788C621.479 615.955 638.233 603.572 660.43 588.073C682.659 572.55 710.421 553.849 741.711 535.298C804.314 498.184 880.957 461.726 955.623 452.492L955.377 450.508C880.298 459.793 803.369 496.418 740.691 533.577C709.342 552.163 681.536 570.895 659.285 586.433C637.001 601.993 620.361 614.296 611.238 620.101L612.311 621.788ZM955.623 452.492C1037.1 442.416 1138.76 469.646 1220.15 499.474C1260.83 514.38 1296.4 529.918 1321.8 541.729C1334.5 547.635 1344.66 552.608 1351.64 556.104C1355.13 557.852 1357.83 559.231 1359.65 560.173C1360.56 560.643 1361.26 561.005 1361.72 561.248C1361.95 561.37 1362.13 561.462 1362.25 561.524C1362.31 561.555 1362.35 561.578 1362.38 561.593C1362.39 561.601 1362.4 561.607 1362.41 561.611C1362.42 561.613 1362.42 561.614 1362.42 561.615C1362.42 561.616 1362.42 561.616 1362.89 560.733C1363.36 559.85 1363.36 559.849 1363.36 559.848C1363.35 559.847 1363.35 559.845 1363.35 559.843C1363.34 559.839 1363.33 559.833 1363.31 559.825C1363.28 559.809 1363.24 559.786 1363.18 559.755C1363.06 559.692 1362.88 559.599 1362.65 559.476C1362.18 559.231 1361.49 558.868 1360.57 558.396C1358.74 557.451 1356.04 556.068 1352.54 554.316C1345.54 550.812 1335.37 545.83 1322.65 539.916C1297.21 528.087 1261.58 512.526 1220.84 497.596C1139.41 467.754 1037.37 440.368 955.377 450.508L955.623 452.492ZM1362.89 560.733C1362.5 561.655 1362.5 561.655 1362.5 561.655C1362.51 561.655 1362.51 561.656 1362.51 561.656C1362.51 561.658 1362.51 561.659 1362.52 561.661C1362.53 561.666 1362.55 561.672 1362.57 561.681C1362.61 561.698 1362.67 561.724 1362.75 561.757C1362.91 561.824 1363.15 561.923 1363.46 562.053C1364.09 562.311 1365.02 562.689 1366.22 563.169C1368.63 564.13 1372.12 565.498 1376.49 567.132C1385.22 570.4 1397.44 574.731 1411.42 578.987C1439.35 587.489 1474.39 595.726 1502.54 594.499L1502.46 592.501C1474.66 593.712 1439.9 585.565 1412.01 577.074C1398.08 572.833 1385.89 568.516 1377.19 565.259C1372.84 563.631 1369.36 562.268 1366.97 561.312C1365.77 560.835 1364.85 560.459 1364.22 560.203C1363.91 560.075 1363.68 559.976 1363.52 559.91C1363.44 559.877 1363.38 559.853 1363.34 559.836C1363.32 559.828 1363.3 559.821 1363.29 559.817C1363.29 559.815 1363.28 559.814 1363.28 559.813C1363.28 559.812 1363.28 559.812 1363.28 559.811C1363.28 559.811 1363.28 559.811 1362.89 560.733ZM1502.54 594.499C1529.74 593.314 1562.87 582.761 1589.13 572.549C1602.27 567.437 1613.73 562.4 1621.89 558.64C1625.98 556.76 1629.24 555.199 1631.48 554.107C1632.6 553.562 1633.47 553.133 1634.06 552.841C1634.35 552.695 1634.57 552.583 1634.72 552.507C1634.8 552.469 1634.86 552.44 1634.89 552.421C1634.91 552.411 1634.93 552.404 1634.94 552.399C1634.94 552.397 1634.95 552.395 1634.95 552.393C1634.95 552.393 1634.95 552.392 1634.95 552.392C1634.95 552.392 1634.95 552.391 1634.5 551.5C1634.05 550.609 1634.05 550.609 1634.05 550.609C1634.05 550.609 1634.04 550.61 1634.04 550.61C1634.04 550.611 1634.04 550.613 1634.03 550.615C1634.02 550.62 1634.01 550.627 1633.99 550.636C1633.95 550.655 1633.9 550.683 1633.83 550.721C1633.68 550.795 1633.46 550.906 1633.17 551.051C1632.58 551.34 1631.72 551.766 1630.61 552.309C1628.38 553.395 1625.13 554.95 1621.06 556.823C1612.92 560.57 1601.5 565.591 1588.4 570.685C1562.18 580.884 1529.31 591.331 1502.46 592.501L1502.54 594.499ZM1634.5 551.5C1634.93 552.4 1634.94 552.4 1634.94 552.399C1634.94 552.398 1634.94 552.396 1634.95 552.394C1634.96 552.39 1634.97 552.384 1634.99 552.375C1635.02 552.358 1635.07 552.333 1635.14 552.3C1635.28 552.233 1635.49 552.134 1635.76 552.002C1636.3 551.739 1637.11 551.349 1638.17 550.838C1640.29 549.816 1643.4 548.314 1647.38 546.391C1655.34 542.544 1666.79 537.016 1680.73 530.286C1708.62 516.827 1746.46 498.563 1786.32 479.346C1866.03 440.911 1953.78 398.662 1985.93 383.403L1985.07 381.597C1952.91 396.859 1865.16 439.11 1785.45 477.545C1745.59 496.762 1707.75 515.026 1679.87 528.485C1665.92 535.215 1654.47 540.743 1646.51 544.59C1642.53 546.513 1639.42 548.015 1637.3 549.037C1636.24 549.548 1635.43 549.938 1634.89 550.201C1634.62 550.333 1634.41 550.432 1634.27 550.499C1634.2 550.532 1634.15 550.558 1634.12 550.574C1634.1 550.583 1634.09 550.589 1634.08 550.593C1634.07 550.595 1634.07 550.597 1634.07 550.598C1634.07 550.599 1634.07 550.6 1634.5 551.5Z" fill="#474647" fill-opacity="0.4" mask="url(#path-2-inside-1_649_1265)"/>
</svg>
