<svg width="1920" height="533" viewBox="0 0 1920 533" fill="none" xmlns="http://www.w3.org/2000/svg">
<path d="M1922.5 161.002C1807.5 153.503 1630.43 382.829 1438.5 390C1331.5 393.998 1235 161.002 1149.5 161.002C1038.69 161.002 1098.56 261.101 913.005 334.503C776.819 388.376 660.212 304.637 622.898 289.08C477.345 228.392 442.679 137.638 349.107 152.438C280.661 163.187 269.758 216.358 167.142 257.087C95.697 285.44 29.1153 288.226 -16.5276 286.06" stroke="#474647" stroke-opacity="0.1" stroke-miterlimit="10"/>
<mask id="path-2-inside-1_479_13444" fill="white">
<path d="M-23.5 166.5C74 143.5 205.031 170.108 293.875 236.503C355.975 282.911 378.363 333.048 433.935 370.186C464.396 390.513 488.17 406.131 523.653 414.685C547.227 420.119 571.512 421.759 595.6 419.544C615.184 417.904 631.261 412.003 646.536 405.386C664.558 397.206 681.865 387.525 698.275 376.445C734.857 353.167 944.277 287.945 1079.5 221.003C1180.5 171.003 1310.5 236.503 1310.5 236.503C1310.5 236.503 1558 356.5 1685 356.5C1783.5 356.5 1878.5 287.5 1878.5 287.5C1878.5 287.5 2021.5 192.5 2072 138"/>
</mask>
<path d="M293.875 236.503L294.474 235.702L293.875 236.503ZM433.935 370.186L433.379 371.017L433.38 371.017L433.935 370.186ZM523.653 414.685L523.419 415.658L523.428 415.66L523.653 414.685ZM595.6 419.544L595.516 418.547L595.508 418.548L595.6 419.544ZM646.536 405.386L646.933 406.304L646.941 406.3L646.949 406.297L646.536 405.386ZM698.275 376.445L697.738 375.601L697.726 375.608L697.715 375.616L698.275 376.445ZM1079.5 221.003L1079.94 221.899L1079.5 221.003ZM1310.5 236.503L1310.05 237.396L1310.06 237.399L1310.06 237.403L1310.5 236.503ZM1878.5 287.5L1877.95 286.667L1877.93 286.679L1877.91 286.691L1878.5 287.5ZM-23.2704 167.473C73.9315 144.544 204.661 171.08 293.277 237.304L294.474 235.702C205.401 169.136 74.0685 142.456 -23.7296 165.527L-23.2704 167.473ZM293.277 237.304C324.234 260.439 345.294 284.501 365.604 307.483C385.906 330.456 405.473 352.367 433.379 371.017L434.491 369.354C406.826 350.866 387.412 329.14 367.102 306.158C346.8 283.186 325.617 258.975 294.474 235.702L293.277 237.304ZM433.38 371.017C463.837 391.342 487.744 407.057 523.419 415.658L523.887 413.713C488.596 405.205 464.955 389.684 434.49 369.354L433.38 371.017ZM523.428 415.66C547.106 421.118 571.498 422.765 595.691 420.54L595.508 418.548C571.527 420.754 547.348 419.121 523.878 413.711L523.428 415.66ZM595.683 420.54C615.427 418.888 631.622 412.936 646.933 406.304L646.138 404.468C630.9 411.069 614.94 416.921 595.516 418.547L595.683 420.54ZM646.949 406.297C665.023 398.094 682.379 388.385 698.834 377.273L697.715 375.616C681.352 386.665 664.094 396.319 646.123 404.475L646.949 406.297ZM698.811 377.288C707.856 371.533 727.699 363.128 754.62 352.682C781.503 342.251 815.323 329.829 852.247 316.034C926.073 288.453 1012.28 255.396 1079.94 221.899L1079.06 220.107C1011.5 253.552 925.382 286.576 851.547 314.161C814.64 327.949 780.795 340.381 753.897 350.818C727.037 361.24 706.984 369.717 697.738 375.601L698.811 377.288ZM1079.94 221.899C1130.14 197.048 1187.62 200.874 1232.66 210.979C1255.16 216.028 1274.52 222.636 1288.25 227.982C1295.11 230.654 1300.57 233.01 1304.31 234.697C1306.17 235.541 1307.61 236.217 1308.58 236.681C1309.07 236.914 1309.44 237.093 1309.68 237.214C1309.81 237.274 1309.9 237.32 1309.96 237.351C1309.99 237.366 1310.01 237.377 1310.03 237.385C1310.04 237.389 1310.04 237.392 1310.05 237.393C1310.05 237.394 1310.05 237.395 1310.05 237.395C1310.05 237.396 1310.05 237.396 1310.5 236.503C1310.95 235.61 1310.95 235.609 1310.95 235.609C1310.95 235.608 1310.95 235.607 1310.94 235.606C1310.94 235.604 1310.93 235.601 1310.92 235.597C1310.91 235.588 1310.88 235.576 1310.85 235.56C1310.79 235.528 1310.69 235.481 1310.57 235.419C1310.31 235.295 1309.94 235.113 1309.45 234.877C1308.46 234.407 1307.01 233.724 1305.13 232.874C1301.36 231.175 1295.87 228.804 1288.97 226.118C1275.17 220.745 1255.72 214.103 1233.09 209.027C1187.88 198.882 1129.86 194.958 1079.06 220.107L1079.94 221.899ZM1310.5 236.503C1310.06 237.403 1310.06 237.403 1310.07 237.404C1310.07 237.405 1310.07 237.406 1310.08 237.408C1310.08 237.412 1310.09 237.417 1310.11 237.425C1310.14 237.439 1310.19 237.461 1310.24 237.49C1310.36 237.548 1310.54 237.634 1310.78 237.748C1311.25 237.976 1311.96 238.313 1312.88 238.753C1314.73 239.633 1317.45 240.923 1320.96 242.565C1327.98 245.848 1338.15 250.538 1350.75 256.165C1375.95 267.42 1410.87 282.427 1449.77 297.434C1527.5 327.428 1621.29 357.5 1685 357.5V355.5C1621.71 355.5 1528.25 325.573 1450.48 295.568C1411.63 280.577 1376.74 265.584 1351.56 254.339C1338.98 248.717 1328.82 244.032 1321.81 240.753C1318.3 239.114 1315.58 237.826 1313.74 236.948C1312.82 236.509 1312.12 236.172 1311.65 235.946C1311.41 235.832 1311.23 235.747 1311.11 235.689C1311.06 235.66 1311.01 235.639 1310.98 235.624C1310.97 235.617 1310.95 235.612 1310.95 235.608C1310.94 235.606 1310.94 235.605 1310.94 235.604C1310.94 235.603 1310.94 235.603 1310.5 236.503ZM1685 357.5C1734.46 357.5 1783 340.181 1819.12 322.902C1837.19 314.258 1852.17 305.615 1862.64 299.131C1867.88 295.889 1871.99 293.187 1874.79 291.293C1876.19 290.346 1877.26 289.602 1877.98 289.093C1878.35 288.839 1878.62 288.644 1878.81 288.512C1878.9 288.446 1878.97 288.395 1879.02 288.361C1879.04 288.344 1879.06 288.332 1879.07 288.323C1879.07 288.318 1879.08 288.315 1879.08 288.313C1879.08 288.312 1879.09 288.311 1879.09 288.31C1879.09 288.31 1879.09 288.309 1878.5 287.5C1877.91 286.691 1877.91 286.691 1877.91 286.691C1877.91 286.692 1877.91 286.693 1877.91 286.693C1877.91 286.695 1877.9 286.698 1877.9 286.702C1877.89 286.71 1877.87 286.722 1877.85 286.739C1877.8 286.771 1877.73 286.82 1877.64 286.884C1877.46 287.013 1877.19 287.205 1876.83 287.456C1876.12 287.959 1875.06 288.697 1873.67 289.636C1870.89 291.516 1866.8 294.204 1861.59 297.431C1851.17 303.885 1836.25 312.492 1818.26 321.098C1782.25 338.319 1734.04 355.5 1685 355.5V357.5ZM1878.5 287.5C1879.05 288.333 1879.05 288.333 1879.06 288.332C1879.06 288.331 1879.06 288.33 1879.06 288.328C1879.06 288.326 1879.07 288.321 1879.08 288.315C1879.1 288.304 1879.12 288.286 1879.16 288.263C1879.23 288.217 1879.33 288.149 1879.47 288.058C1879.74 287.876 1880.14 287.606 1880.67 287.251C1881.74 286.541 1883.3 285.493 1885.3 284.141C1889.31 281.435 1895.1 277.51 1902.2 272.629C1916.4 262.868 1935.86 249.284 1956.9 233.996C1998.95 203.441 2047.41 166.012 2072.73 138.68L2071.27 137.32C2046.09 164.488 1997.8 201.809 1955.72 232.379C1934.7 247.653 1915.26 261.226 1901.07 270.981C1893.97 275.858 1888.19 279.78 1884.18 282.482C1882.18 283.834 1880.62 284.88 1879.56 285.589C1879.03 285.943 1878.63 286.213 1878.36 286.394C1878.22 286.484 1878.12 286.553 1878.05 286.598C1878.02 286.621 1877.99 286.638 1877.97 286.65C1877.96 286.656 1877.96 286.66 1877.95 286.663C1877.95 286.664 1877.95 286.665 1877.95 286.666C1877.95 286.667 1877.95 286.667 1878.5 287.5Z" fill="#474647" fill-opacity="0.4" mask="url(#path-2-inside-1_479_13444)"/>
<mask id="path-4-inside-2_479_13444" fill="white">
<path d="M2166 425.959C2107 418.959 2088.85 377.398 2000 311.003C1937.9 264.594 1901.79 215.14 1846.22 178.003C1815.76 157.675 1791.99 142.057 1756.5 133.503C1732.93 128.069 1708.64 126.429 1684.56 128.644C1664.97 130.284 1648.9 136.185 1633.62 142.802C1615.6 150.982 1598.29 160.663 1581.88 171.743C1545.3 195.022 1366.75 342.484 1217 361.003C1053.53 381.219 752.608 227.227 752.608 227.227C752.608 227.227 668.948 192.022 612.999 194.459C558.955 196.814 480.999 236.459 480.999 236.459C480.999 236.459 128.003 440.002 -23.4968 376.002"/>
</mask>
<path d="M2000 311.003L1999.4 311.804L2000 311.003ZM1846.22 178.003L1846.78 177.171L1846.78 177.171L1846.22 178.003ZM1756.5 133.503L1756.74 132.53L1756.73 132.528L1756.5 133.503ZM1684.56 128.644L1684.64 129.641L1684.65 129.64L1684.56 128.644ZM1633.62 142.802L1633.22 141.884L1633.22 141.888L1633.21 141.891L1633.62 142.802ZM1581.88 171.743L1582.42 172.587L1582.43 172.58L1582.44 172.572L1581.88 171.743ZM1217 361.003L1216.88 360.01L1217 361.003ZM752.608 227.227L753.064 226.336L753.03 226.319L752.996 226.305L752.608 227.227ZM612.999 194.459L612.955 193.46L612.999 194.459ZM480.999 236.459L480.546 235.568L480.522 235.58L480.5 235.593L480.999 236.459ZM2166.12 424.966C2136.9 421.5 2117.79 409.498 2094.84 389.992C2071.9 370.491 2045.05 343.42 2000.6 310.202L1999.4 311.804C2043.8 344.981 2070.45 371.887 2093.55 391.516C2116.63 411.14 2136.1 423.419 2165.88 426.953L2166.12 424.966ZM2000.6 310.202C1969.61 287.041 1945.1 263.12 1921.36 240.305C1897.62 217.501 1874.65 195.795 1846.78 177.171L1845.67 178.834C1873.37 197.348 1896.23 218.938 1919.97 241.747C1943.7 264.546 1968.3 288.556 1999.4 311.804L2000.6 310.202ZM1846.78 177.171C1816.32 156.846 1792.41 141.131 1756.74 132.531L1756.27 134.475C1791.56 142.983 1815.2 158.504 1845.67 178.834L1846.78 177.171ZM1756.73 132.528C1733.05 127.07 1708.66 125.423 1684.47 127.649L1684.65 129.64C1708.63 127.434 1732.81 129.067 1756.28 134.477L1756.73 132.528ZM1684.47 127.648C1664.73 129.301 1648.53 135.252 1633.22 141.884L1634.02 143.72C1649.26 137.119 1665.22 131.267 1684.64 129.641L1684.47 127.648ZM1633.21 141.891C1615.13 150.094 1597.78 159.803 1581.32 170.915L1582.44 172.572C1598.8 161.523 1616.06 151.869 1634.03 143.713L1633.21 141.891ZM1581.34 170.9C1572.17 176.739 1554.09 190.362 1529.91 207.719C1505.7 225.1 1475.29 246.279 1441.35 267.308C1373.45 309.384 1291.53 350.779 1216.88 360.01L1217.13 361.995C1292.23 352.708 1374.45 311.112 1442.41 269.008C1476.4 247.946 1506.85 226.738 1531.08 209.344C1555.34 191.926 1573.3 178.387 1582.42 172.587L1581.34 170.9ZM1216.88 360.01C1176.18 365.044 1126.85 359.237 1075.7 347.654C1024.56 336.073 971.664 318.736 923.856 300.76C876.052 282.785 833.35 264.177 802.599 250.063C787.224 243.006 774.838 237.073 766.296 232.905C762.026 230.821 758.716 229.178 756.475 228.057C755.354 227.496 754.501 227.066 753.928 226.775C753.641 226.63 753.425 226.521 753.28 226.447C753.208 226.41 753.154 226.382 753.118 226.364C753.099 226.355 753.086 226.348 753.077 226.343C753.072 226.341 753.069 226.339 753.067 226.338C753.065 226.337 753.064 226.336 752.608 227.227C752.152 228.117 752.154 228.117 752.156 228.119C752.158 228.12 752.162 228.122 752.167 228.124C752.176 228.129 752.19 228.136 752.208 228.145C752.245 228.164 752.3 228.192 752.373 228.229C752.519 228.304 752.737 228.414 753.025 228.56C753.6 228.851 754.457 229.283 755.58 229.845C757.827 230.97 761.142 232.615 765.419 234.703C773.973 238.877 786.374 244.817 801.765 251.881C832.546 266.009 875.292 284.636 923.152 302.632C971.01 320.627 1024 337.997 1075.26 349.604C1126.5 361.208 1176.09 367.07 1217.13 361.995L1216.88 360.01ZM752.608 227.227C752.996 226.305 752.995 226.305 752.995 226.304C752.994 226.304 752.993 226.304 752.992 226.303C752.989 226.302 752.985 226.3 752.98 226.298C752.969 226.294 752.954 226.287 752.933 226.279C752.892 226.261 752.831 226.236 752.75 226.202C752.589 226.135 752.349 226.036 752.035 225.907C751.406 225.648 750.477 225.27 749.275 224.79C746.872 223.83 743.379 222.461 739.012 220.827C730.281 217.56 718.055 213.228 704.076 208.972C676.15 200.471 641.11 192.234 612.955 193.46L613.043 195.459C640.837 194.248 675.602 202.394 703.493 210.886C717.423 215.126 729.609 219.444 738.312 222.701C742.663 224.329 746.142 225.692 748.533 226.647C749.728 227.125 750.651 227.501 751.275 227.757C751.587 227.885 751.824 227.983 751.982 228.049C752.062 228.082 752.121 228.107 752.161 228.124C752.181 228.132 752.196 228.138 752.206 228.142C752.211 228.144 752.214 228.146 752.217 228.147C752.218 228.147 752.219 228.148 752.219 228.148C752.22 228.148 752.22 228.148 752.608 227.227ZM612.955 193.46C585.76 194.645 552.631 205.198 526.37 215.41C513.225 220.522 501.772 225.56 493.606 229.32C489.522 231.2 486.26 232.761 484.017 233.852C482.895 234.398 482.029 234.826 481.442 235.119C481.148 235.265 480.925 235.377 480.775 235.452C480.699 235.49 480.642 235.519 480.604 235.538C480.585 235.548 480.571 235.555 480.561 235.56C480.556 235.563 480.552 235.565 480.55 235.566C480.548 235.567 480.547 235.567 480.547 235.568C480.546 235.568 480.546 235.568 480.999 236.459C481.452 237.351 481.453 237.351 481.453 237.35C481.454 237.35 481.454 237.35 481.455 237.349C481.458 237.348 481.461 237.346 481.466 237.344C481.475 237.339 481.489 237.332 481.507 237.323C481.544 237.304 481.6 237.276 481.674 237.239C481.822 237.164 482.043 237.054 482.333 236.909C482.915 236.619 483.776 236.193 484.892 235.651C487.123 234.565 490.373 233.01 494.442 231.136C502.581 227.389 513.996 222.368 527.095 217.274C553.323 207.075 586.194 196.628 613.043 195.459L612.955 193.46ZM480.999 236.459C480.5 235.593 480.498 235.594 480.496 235.595C480.493 235.597 480.489 235.599 480.484 235.602C480.473 235.608 480.457 235.617 480.436 235.63C480.394 235.654 480.33 235.691 480.245 235.739C480.076 235.836 479.822 235.981 479.487 236.173C478.816 236.555 477.817 237.121 476.507 237.858C473.888 239.331 470.026 241.485 465.056 244.203C455.115 249.64 440.743 257.336 423.022 266.372C387.579 284.445 338.749 307.874 285.192 329.302C231.63 350.733 173.37 370.15 119.062 380.215C64.7241 390.286 14.4937 390.965 -23.1077 375.081L-23.886 376.923C14.2627 393.039 64.9692 392.275 119.427 382.182C173.915 372.083 232.311 352.615 285.935 331.159C339.565 309.702 388.452 286.245 423.931 268.154C441.67 259.108 456.06 251.402 466.015 245.958C470.993 243.235 474.862 241.078 477.488 239.601C478.801 238.863 479.803 238.294 480.477 237.91C480.814 237.718 481.069 237.572 481.24 237.474C481.325 237.425 481.39 237.388 481.433 237.363C481.455 237.351 481.471 237.342 481.482 237.335C481.487 237.332 481.491 237.33 481.494 237.328C481.497 237.327 481.499 237.326 480.999 236.459Z" fill="#474647" fill-opacity="0.2" mask="url(#path-4-inside-2_479_13444)"/>
</svg>
