<svg width="172" height="522" viewBox="0 0 172 522" fill="none" xmlns="http://www.w3.org/2000/svg">
<path d="M40.0715 521.619C26.585 499.976 41.1715 415.037 54.4734 382.915C64.662 358.311 85.8953 354.635 85.8953 330.811C85.8953 302.784 64.798 307.206 48.7254 260.273C36.9289 225.828 51.6476 185.051 55.054 175.613C68.3427 138.798 88.215 130.03 84.9742 106.363C82.6205 89.0513 70.9778 86.2936 62.0595 60.3391C55.851 42.2684 55.241 25.428 55.7154 13.8836" stroke="#474647" stroke-opacity="0.15" stroke-miterlimit="10"/>
<mask id="path-2-inside-1_479_15979" fill="white">
<path d="M68.4521 0C66.9206 14.9392 56.9423 42.7998 42.4159 65.2958C32.2623 81.0199 21.2931 86.6886 13.1678 100.76C8.72044 108.473 5.30339 114.492 3.43184 123.477C2.24295 129.446 1.88416 135.595 2.3689 141.694C2.72756 146.653 4.01873 150.724 5.46641 154.592C7.25601 159.155 9.3741 163.537 11.7984 167.692C16.8914 176.955 44.819 216.809 48.8707 254.726C53.2937 296.118 24.9719 357.88 24.9719 357.88C24.9719 357.88 17.2696 379.063 17.8029 393.23C18.3181 406.914 26.992 426.653 26.992 426.653C26.992 426.653 57.2894 499.245 63.967 515.529"/>
</mask>
<path d="M42.4159 65.2958L43.256 65.8382L42.4159 65.2958ZM13.1678 100.76L12.3018 100.26L12.3015 100.26L13.1678 100.76ZM3.43184 123.477L2.45282 123.273L2.45111 123.282L3.43184 123.477ZM2.3689 141.694L3.36632 141.622L3.36576 141.615L2.3689 141.694ZM5.46641 154.592L4.52987 154.942L4.5326 154.95L4.53544 154.957L5.46641 154.592ZM11.7984 167.692L12.6747 167.211L12.6685 167.199L12.6621 167.188L11.7984 167.692ZM48.8707 254.726L47.8764 254.832L48.8707 254.726ZM24.9719 357.88L24.063 357.463L24.046 357.5L24.0321 357.538L24.9719 357.88ZM17.8029 393.23L16.8036 393.268L17.8029 393.23ZM26.992 426.653L27.9148 426.268L27.9112 426.26L27.9075 426.251L26.992 426.653ZM67.4574 -0.101982C65.946 14.6405 56.0412 42.3517 41.5758 64.7533L43.256 65.8382C57.8433 43.2479 67.8953 15.2379 69.4469 0.101982L67.4574 -0.101982ZM41.5758 64.7533C36.5601 72.5208 31.3459 77.8044 26.3162 82.9485C21.2907 88.0885 16.4343 93.1032 12.3018 100.26L14.0338 101.26C18.0266 94.3453 22.7175 89.49 27.7463 84.3467C32.7709 79.2077 38.1181 73.7948 43.256 65.8382L41.5758 64.7533ZM12.3015 100.26C7.85387 107.974 4.36031 114.116 2.45285 123.273L4.41082 123.681C6.24648 114.869 9.58701 108.972 14.0341 101.259L12.3015 100.26ZM2.45111 123.282C1.24413 129.342 0.880038 135.583 1.37204 141.774L3.36576 141.615C2.88827 135.607 3.24178 129.551 4.41258 123.672L2.45111 123.282ZM1.3715 141.767C1.74025 146.865 3.06897 151.039 4.52987 154.942L6.40296 154.241C4.96849 150.409 3.71487 146.442 3.36629 141.622L1.3715 141.767ZM4.53544 154.957C6.34349 159.567 8.48393 163.996 10.9347 168.196L12.6621 167.188C10.2643 163.079 8.16854 158.743 6.39738 154.227L4.53544 154.957ZM10.9221 168.174C12.2073 170.512 14.9414 174.795 18.3136 180.384C21.7048 186.004 25.787 193.018 29.835 200.92C37.9399 216.742 45.8699 236.055 47.8764 254.832L49.865 254.62C47.8198 235.48 39.7602 215.909 31.6151 200.008C27.5381 192.049 23.4302 184.993 20.026 179.351C16.6027 173.677 13.936 169.505 12.6747 167.211L10.9221 168.174ZM47.8764 254.832C50.0645 275.309 44.1478 300.929 37.6266 321.523C34.3722 331.801 30.9794 340.79 28.4002 347.21C27.1108 350.42 26.0252 352.986 25.2625 354.748C24.8812 355.63 24.5806 356.31 24.3757 356.769C24.2733 356.999 24.1947 357.173 24.142 357.289C24.1156 357.348 24.0957 357.392 24.0824 357.421C24.0758 357.435 24.0709 357.446 24.0676 357.453C24.066 357.457 24.0648 357.459 24.064 357.461C24.0636 357.462 24.0633 357.462 24.0632 357.463C24.063 357.463 24.063 357.463 24.9719 357.88C25.8809 358.297 25.8811 358.297 25.8814 358.296C25.8816 358.295 25.882 358.295 25.8825 358.294C25.8834 358.292 25.8848 358.289 25.8866 358.285C25.8902 358.277 25.8955 358.265 25.9025 358.25C25.9164 358.219 25.937 358.174 25.9641 358.114C26.0183 357.994 26.0982 357.817 26.2021 357.584C26.41 357.118 26.7136 356.431 27.098 355.543C27.8669 353.766 28.9594 351.183 30.256 347.956C32.849 341.502 36.2602 332.464 39.5333 322.127C46.0672 301.492 52.1 275.535 49.865 254.62L47.8764 254.832ZM24.9719 357.88C24.0321 357.538 24.0321 357.539 24.032 357.539C24.0319 357.539 24.0318 357.539 24.0316 357.54C24.0313 357.541 24.0309 357.542 24.0304 357.543C24.0294 357.546 24.0279 357.55 24.0259 357.556C24.022 357.566 24.0163 357.582 24.0088 357.603C23.9938 357.645 23.9717 357.706 23.9432 357.787C23.886 357.948 23.8025 358.185 23.6968 358.492C23.4853 359.104 23.1844 359.993 22.8253 361.104C22.1073 363.324 21.1556 366.433 20.2203 369.988C18.3571 377.071 16.5311 386.029 16.8036 393.268L18.8022 393.192C18.5414 386.265 20.3 377.547 22.1545 370.497C23.0782 366.986 24.0188 363.913 24.7283 361.719C25.0829 360.622 25.3796 359.746 25.5873 359.144C25.6911 358.844 25.7726 358.612 25.828 358.456C25.8557 358.378 25.8768 358.319 25.891 358.279C25.898 358.26 25.9033 358.245 25.9068 358.236C25.9085 358.231 25.9098 358.227 25.9107 358.225C25.9111 358.224 25.9114 358.223 25.9116 358.222C25.9116 358.222 25.9117 358.222 25.9117 358.222C25.9118 358.222 25.9117 358.222 24.9719 357.88ZM16.8036 393.268C17.0669 400.261 19.4043 408.73 21.6427 415.392C22.7662 418.736 23.8732 421.648 24.6995 423.725C25.1127 424.764 25.456 425.594 25.6964 426.166C25.8167 426.452 25.9112 426.673 25.9759 426.824C26.0082 426.899 26.0331 426.956 26.0501 426.995C26.0585 427.015 26.065 427.03 26.0694 427.04C26.0717 427.045 26.0734 427.049 26.0745 427.051C26.0751 427.053 26.0756 427.054 26.0759 427.054C26.0761 427.055 26.0762 427.055 26.0763 427.055C26.0764 427.055 26.0765 427.056 26.992 426.653C27.9075 426.251 27.9075 426.251 27.9075 426.251C27.9074 426.251 27.9074 426.251 27.9073 426.251C27.9071 426.25 27.9067 426.249 27.9063 426.248C27.9053 426.246 27.9039 426.243 27.9019 426.238C27.898 426.229 27.892 426.216 27.8841 426.197C27.8682 426.161 27.8443 426.106 27.813 426.033C27.7504 425.888 27.6581 425.671 27.5401 425.391C27.3042 424.83 26.9658 424.011 26.5578 422.986C25.7416 420.934 24.6479 418.056 23.5385 414.755C21.3112 408.126 19.0541 399.884 18.8022 393.192L16.8036 393.268ZM26.992 426.653C26.0691 427.039 26.0692 427.039 26.0695 427.039C26.0697 427.04 26.0701 427.041 26.0705 427.042C26.0714 427.044 26.0728 427.047 26.0747 427.052C26.0783 427.061 26.0838 427.074 26.0911 427.091C26.1057 427.126 26.1275 427.178 26.1562 427.247C26.2138 427.385 26.2992 427.59 26.411 427.858C26.6345 428.393 26.9632 429.181 27.384 430.189C28.2255 432.206 29.435 435.105 30.9074 438.635C33.852 445.695 37.8478 455.278 42.0523 465.369C50.4619 485.554 59.7043 507.77 63.0418 515.908L64.8922 515.149C61.5521 507.004 52.307 484.782 43.8985 464.6C39.6939 454.508 35.698 444.925 32.7532 437.865C31.2808 434.335 30.0713 431.436 29.2298 429.419C28.809 428.411 28.4803 427.623 28.2567 427.087C28.145 426.82 28.0595 426.615 28.002 426.477C27.9732 426.408 27.9514 426.356 27.9368 426.321C27.9295 426.303 27.924 426.29 27.9204 426.281C27.9185 426.277 27.9171 426.274 27.9162 426.272C27.9158 426.27 27.9154 426.27 27.9152 426.269C27.9149 426.268 27.9148 426.268 26.992 426.653Z" fill="#474647" fill-opacity="0.4" mask="url(#path-2-inside-1_479_15979)"/>
</svg>
