<svg width="52" height="51" viewBox="0 0 52 51" fill="none" xmlns="http://www.w3.org/2000/svg">
<path fill-rule="evenodd" clip-rule="evenodd" d="M4.30861 25.6437C4.30336 25.2293 4.46293 24.8298 4.75222 24.5331C5.0415 24.2364 5.43681 24.0668 5.85118 24.0615L42.7014 23.5946L32.7432 13.8887C32.4461 13.5991 32.2762 13.2032 32.271 12.7883C32.2657 12.3735 32.4255 11.9735 32.7152 11.6764C33.0048 11.3793 33.4006 11.2094 33.8155 11.2042C34.2304 11.1989 34.6304 11.3587 34.9275 11.6483L47.5849 23.989C47.7322 24.1322 47.8498 24.3032 47.931 24.492C48.0122 24.6808 48.0553 24.8838 48.0579 25.0893C48.0605 25.2948 48.0225 25.4988 47.9462 25.6896C47.8698 25.8804 47.7566 26.0543 47.6129 26.2013L35.2723 38.8587C34.9826 39.1557 34.5868 39.3256 34.1719 39.3309C33.757 39.3361 33.3571 39.1763 33.06 38.8867C32.7629 38.597 32.593 38.2012 32.5878 37.7863C32.5825 37.3714 32.7423 36.9715 33.0319 36.6744L42.741 26.7193L5.89078 27.1863C5.47641 27.1915 5.07693 27.0319 4.78021 26.7427C4.4835 26.4534 4.31386 26.0581 4.30861 25.6437Z" fill="#636163"/>
</svg>
