<svg width="20" height="20" viewBox="0 0 20 20" fill="none" xmlns="http://www.w3.org/2000/svg">
<path fill-rule="evenodd" clip-rule="evenodd" d="M13.0935 13.9774C13.3376 14.2214 13.7333 14.2214 13.9774 13.9774C14.2214 13.7333 14.2214 13.3376 13.9774 13.0935L10.8838 9.9999L13.9774 6.90633C14.2214 6.66226 14.2214 6.26653 13.9774 6.02245C13.7333 5.77837 13.3376 5.77837 13.0935 6.02245L9.99991 9.11602L6.9063 6.02241C6.66223 5.77834 6.2665 5.77834 6.02242 6.02241C5.77834 6.26649 5.77834 6.66222 6.02242 6.9063L9.11603 9.9999L6.02241 13.0935C5.77834 13.3376 5.77834 13.7333 6.02241 13.9774C6.26649 14.2215 6.66222 14.2215 6.9063 13.9774L9.99991 10.8838L13.0935 13.9774Z" fill="#474647"/>
</svg>
