<svg width="36" height="36" viewBox="0 0 36 36" fill="none" xmlns="http://www.w3.org/2000/svg">
<circle cx="18" cy="18" r="18" fill="#474647"/>
<path d="M18 18.75C19.2426 18.75 20.25 17.7426 20.25 16.5C20.25 15.2574 19.2426 14.25 18 14.25C16.7574 14.25 15.75 15.2574 15.75 16.5C15.75 17.7426 16.7574 18.75 18 18.75Z" stroke="white" stroke-width="1.5" stroke-linecap="round" stroke-linejoin="round"/>
<path d="M18 10.5C16.4087 10.5 14.8826 11.1321 13.7574 12.2574C12.6321 13.3826 12 14.9087 12 16.5C12 17.919 12.3015 18.8475 13.125 19.875L18 25.5L22.875 19.875C23.6985 18.8475 24 17.919 24 16.5C24 14.9087 23.3679 13.3826 22.2426 12.2574C21.1174 11.1321 19.5913 10.5 18 10.5Z" stroke="white" stroke-width="1.5" stroke-linecap="round" stroke-linejoin="round"/>
</svg>
