<svg width="24" height="24" viewBox="0 0 24 24" fill="none" xmlns="http://www.w3.org/2000/svg">
<path d="M21.6997 21.4125C21.1957 20.9624 18.7596 19.0373 13.6662 18.5921L14.3844 10.3724L18.5734 10.7385C18.665 10.7469 18.7573 10.7372 18.8451 10.7097C18.9329 10.6823 19.0144 10.6377 19.0849 10.5786C19.1554 10.5195 19.2135 10.4471 19.2558 10.3654C19.2981 10.2837 19.3238 10.1945 19.3315 10.1028L19.5765 7.31743C19.5926 7.13245 19.5347 6.94863 19.4154 6.80635C19.296 6.66407 19.1251 6.57496 18.9402 6.5586L14.7512 6.19248L15.0543 2.70354C15.0704 2.51863 15.0125 2.33489 14.8931 2.19273C14.7738 2.05056 14.6029 1.9616 14.418 1.94541L11.6319 1.7004C11.447 1.68429 11.2632 1.74227 11.1211 1.86159C10.9789 1.98092 10.8899 2.15182 10.8738 2.33672L10.5699 5.82497L6.38167 5.45885C6.28999 5.44992 6.19745 5.45935 6.10946 5.4866C6.02146 5.51384 5.93978 5.55836 5.8692 5.61754C5.79861 5.67672 5.74053 5.74938 5.69835 5.83128C5.65617 5.91317 5.63074 6.00264 5.62354 6.09448L5.37853 8.87989C5.36241 9.06487 5.42037 9.24869 5.53968 9.39097C5.65899 9.53325 5.8299 9.62236 6.01486 9.63872L10.2038 10.0048L9.4548 18.5858C3.73486 19.0583 1.31626 21.3915 1.20566 21.5021C1.10755 21.6 1.04069 21.7247 1.01355 21.8606C0.986417 21.9965 1.00022 22.1374 1.05322 22.2655C1.10622 22.3935 1.19603 22.5029 1.31127 22.5799C1.42652 22.6568 1.56201 22.6979 1.70058 22.6978H21.3154C21.4661 22.6978 21.6127 22.6492 21.7336 22.5592C21.8545 22.4692 21.9431 22.3426 21.9863 22.1983C22.0294 22.0539 22.0249 21.8995 21.9732 21.7579C21.9216 21.6163 21.8257 21.4952 21.6997 21.4125ZM11.0229 8.67198L6.83459 8.30517L6.95709 6.91421L11.1461 7.28033C11.331 7.29644 11.5147 7.23846 11.6569 7.11913C11.799 6.9998 11.888 6.8289 11.9042 6.644L12.208 3.15576L13.599 3.27826L13.2959 6.76721C13.2797 6.95211 13.3377 7.13585 13.457 7.27802C13.5764 7.42019 13.7473 7.50915 13.9322 7.52534L18.1204 7.89145L17.9979 9.28241L13.809 8.91629C13.6235 8.89669 13.4401 8.95829 13.298 9.0773C13.1558 9.1963 13.0669 9.36711 13.0508 9.55262L12.2682 18.5151C12.0148 18.5081 11.7656 18.4976 11.501 18.4976C11.2819 18.4976 11.0782 18.5088 10.8661 18.513L11.6592 9.42941C11.6751 9.24462 11.617 9.06106 11.4977 8.91905C11.3784 8.77704 11.2076 8.68818 11.0229 8.67198ZM4.14228 21.2977C5.63194 20.6159 8.02674 19.8976 11.501 19.8976C14.9752 19.8976 17.37 20.6159 18.8597 21.2977H4.14228Z" fill="white"/>
</svg>
