<svg width="28" height="28" viewBox="0 0 28 28" fill="none" xmlns="http://www.w3.org/2000/svg">
<path d="M24.3217 17.3313L19.1691 15.0224L19.1549 15.0159C18.8874 14.9015 18.5956 14.8555 18.3059 14.8823C18.0161 14.909 17.7377 15.0076 17.4956 15.169C17.4671 15.1878 17.4397 15.2083 17.4136 15.2302L14.7514 17.4998C13.0649 16.6806 11.3236 14.9524 10.5044 13.2877L12.7772 10.5851C12.7991 10.5577 12.8199 10.5304 12.8395 10.5009C12.9975 10.2595 13.0934 9.98279 13.1185 9.69541C13.1437 9.40802 13.0975 9.11887 12.9839 8.85368V8.84056L10.6684 3.67915C10.5183 3.33272 10.2602 3.04414 9.93256 2.85648C9.60494 2.66882 9.22541 2.59214 8.85064 2.6379C7.36857 2.83293 6.00818 3.56078 5.02353 4.68551C4.03889 5.81024 3.49733 7.25494 3.50001 8.74978C3.50001 17.4342 10.5656 24.4998 19.25 24.4998C20.7449 24.5025 22.1896 23.9609 23.3143 22.9763C24.439 21.9916 25.1669 20.6312 25.3619 19.1492C25.4077 18.7745 25.3312 18.3951 25.1438 18.0675C24.9563 17.7399 24.668 17.4816 24.3217 17.3313ZM19.25 22.7498C15.5382 22.7457 11.9796 21.2694 9.35499 18.6448C6.73036 16.0202 5.25406 12.4616 5.25001 8.74978C5.2459 7.68172 5.63069 6.64868 6.33253 5.84358C7.03438 5.03849 8.00528 4.51638 9.06392 4.37478C9.06349 4.37914 9.06349 4.38354 9.06392 4.3879L11.3608 9.52853L9.10001 12.2345C9.07706 12.2609 9.05622 12.289 9.03767 12.3187C8.87307 12.5713 8.77652 12.8621 8.75735 13.1629C8.73819 13.4638 8.79707 13.7645 8.92829 14.0359C9.91923 16.0626 11.9613 18.0893 14.0099 19.0792C14.2833 19.2091 14.5857 19.266 14.8876 19.2441C15.1896 19.2223 15.4807 19.1225 15.7325 18.9545C15.7606 18.9355 15.7876 18.9151 15.8134 18.8932L18.4724 16.6248L23.613 18.9271H23.625C23.4851 19.9873 22.9638 20.9601 22.1586 21.6637C21.3533 22.3673 20.3193 22.7534 19.25 22.7498Z" fill="#474647"/>
</svg>
