<svg width="21" height="22" viewBox="0 0 21 22" fill="none" xmlns="http://www.w3.org/2000/svg">
<path d="M11.3 21.6978H9.69937C9.40661 21.6981 9.12217 21.6003 8.89142 21.4201C8.66068 21.2399 8.49691 20.9876 8.42625 20.7035L8.09419 19.3753C7.51245 19.2046 6.95075 18.9718 6.41878 18.681L5.24409 19.3858C4.99327 19.5368 4.69912 19.5994 4.40855 19.5637C4.11798 19.528 3.84772 19.3961 3.64088 19.1889L2.50884 18.0569C2.30167 17.85 2.16968 17.5798 2.13388 17.2893C2.09808 16.9988 2.16054 16.7046 2.31131 16.4537L3.01613 15.279C2.72533 14.747 2.49255 14.1853 2.32181 13.6036L0.993563 13.2715C0.709571 13.2007 0.457449 13.0369 0.277381 12.8062C0.0973134 12.5754 -0.000334715 12.2911 8.62051e-07 11.9984V10.3971C-0.000298323 10.1044 0.0974438 9.81992 0.277639 9.58918C0.457835 9.35843 0.710106 9.19467 0.994219 9.124L2.32247 8.7926C2.49315 8.21063 2.72593 7.64872 3.01678 7.11654L2.31197 5.94185C2.16112 5.69099 2.09855 5.39686 2.13422 5.10632C2.1699 4.81578 2.30178 4.54554 2.50884 4.33863L3.64088 3.20725C3.8477 3.00008 4.11791 2.86809 4.40845 2.83229C4.699 2.79649 4.99317 2.85895 5.24409 3.00972L6.41878 3.71454C6.95075 3.42372 7.51245 3.19095 8.09419 3.02022L8.42625 1.69197C8.49691 1.40786 8.66068 1.15559 8.89142 0.975394C9.12217 0.795198 9.40661 0.697456 9.69937 0.697755H11.3C11.5928 0.697341 11.8773 0.79504 12.108 0.975254C12.3388 1.15547 12.5025 1.4078 12.5731 1.69197L12.9052 3.02022C13.4869 3.19086 14.0486 3.42364 14.5806 3.71454L15.7552 3.00972C16.0061 2.85884 16.3003 2.79631 16.5909 2.83211C16.8815 2.86791 17.1517 2.99998 17.3585 3.20725L18.4898 4.33863C18.6972 4.5455 18.8293 4.81583 18.8651 5.10652C18.9009 5.39721 18.8383 5.69151 18.6874 5.9425L17.9826 7.11719C18.2738 7.64912 18.507 8.21081 18.6782 8.7926L20.0051 9.12466C20.2892 9.19517 20.5416 9.35878 20.7219 9.58941C20.9022 9.82003 21.0001 10.1044 21 10.3971V11.9971C21.0004 12.29 20.9026 12.5747 20.7223 12.8056C20.542 13.0365 20.2895 13.2003 20.0051 13.2708L18.6782 13.6029C18.507 14.1847 18.2738 14.7464 17.9826 15.2783L18.6874 16.453C18.8382 16.7039 18.9008 16.998 18.8651 17.2885C18.8294 17.5791 18.6976 17.8493 18.4905 18.0562L17.3585 19.1876C17.1517 19.3949 16.8815 19.5269 16.5909 19.5627C16.3003 19.5985 16.0061 19.536 15.7552 19.3851L14.5806 18.6803C14.0484 18.9715 13.4865 19.2045 12.9045 19.3753L12.5731 20.7035C12.5025 20.9877 12.3388 21.24 12.108 21.4203C11.8773 21.6005 11.5928 21.6982 11.3 21.6978ZM6.41156 17.2635C6.53217 17.2634 6.65046 17.2966 6.75347 17.3593C7.38515 17.7447 8.07275 18.0298 8.79178 18.2045C8.90806 18.2328 9.01439 18.2923 9.09929 18.3766C9.18419 18.4609 9.24442 18.5669 9.27347 18.6829L9.70003 20.3853H11.3L11.7265 18.6829C11.7553 18.5668 11.8153 18.4607 11.9001 18.3762C11.9849 18.2918 12.0913 18.2322 12.2076 18.2039C12.9266 18.0294 13.6142 17.7445 14.2459 17.3593C14.3481 17.2969 14.4654 17.2637 14.5851 17.2633C14.7048 17.2628 14.8224 17.2951 14.9251 17.3567L16.4305 18.2603L17.5626 17.1289L16.6589 15.6228C16.5972 15.5202 16.5648 15.4026 16.5653 15.2829C16.5658 15.1631 16.599 15.0458 16.6615 14.9436C17.0467 14.3119 17.3319 13.6243 17.5068 12.9053C17.5351 12.789 17.5947 12.6826 17.6791 12.5977C17.7636 12.5128 17.8696 12.4526 17.9858 12.4236L19.6875 11.9977V10.3978L17.9852 9.97188C17.869 9.94294 17.7629 9.88276 17.6785 9.79785C17.594 9.71294 17.5344 9.60655 17.5061 9.49019C17.3312 8.77122 17.0461 8.08365 16.6609 7.45188C16.5984 7.34972 16.5651 7.23239 16.5646 7.11264C16.5642 6.99288 16.5965 6.8753 16.6583 6.77266L17.5619 5.26657L16.4305 4.13519L14.9251 5.03885C14.8224 5.10041 14.7048 5.13271 14.5851 5.13224C14.4654 5.13178 14.3481 5.09858 14.2459 5.03622C13.6142 4.6508 12.9266 4.36566 12.2076 4.19097C12.0912 4.16286 11.9848 4.1034 11.8999 4.01905C11.815 3.93471 11.7548 3.82871 11.7259 3.71257L11.3006 2.01025H9.69937L9.27413 3.71257C9.24518 3.82877 9.185 3.93483 9.1001 4.01928C9.01519 4.10372 8.90879 4.16333 8.79244 4.19163C8.07344 4.36615 7.38584 4.65107 6.75413 5.03622C6.65197 5.09872 6.53464 5.132 6.41488 5.13247C6.29513 5.13293 6.17754 5.10055 6.07491 5.03885L4.56881 4.13519L3.43744 5.26657L4.34109 6.77266C4.40266 6.87534 4.43495 6.99291 4.43449 7.11264C4.43403 7.23236 4.40082 7.34967 4.33847 7.45188C3.95308 8.08356 3.66795 8.77116 3.49322 9.49019C3.46497 9.60647 3.40546 9.71281 3.32114 9.79771C3.23682 9.88261 3.13089 9.94283 3.01481 9.97188L1.3125 10.3978V11.9977L3.01481 12.4236C3.13101 12.4526 3.23708 12.5128 3.32152 12.5977C3.40597 12.6826 3.46557 12.789 3.49388 12.9053C3.6684 13.6243 3.95331 14.3119 4.33847 14.9436C4.40082 15.0458 4.43403 15.1631 4.43449 15.2829C4.43495 15.4026 4.40266 15.5202 4.34109 15.6228L3.43744 17.1289L4.56881 18.2603L6.07491 17.3567C6.17681 17.2956 6.29275 17.2634 6.41156 17.2635Z" fill="white"/>
<path d="M9.8435 13.1665C9.75731 13.1666 9.67195 13.1496 9.59233 13.1166C9.51271 13.0836 9.44039 13.0352 9.37953 12.9742L8.06703 11.6617C7.94749 11.5379 7.88134 11.3722 7.88284 11.2001C7.88433 11.028 7.95335 10.8634 8.07502 10.7418C8.1967 10.6201 8.36129 10.5511 8.53336 10.5496C8.70543 10.5481 8.8712 10.6142 8.99497 10.7338L9.8435 11.5823L12.0045 9.42128C12.1283 9.30174 12.2941 9.23559 12.4661 9.23709C12.6382 9.23858 12.8028 9.3076 12.9245 9.42927C13.0461 9.55095 13.1152 9.71554 13.1167 9.88761C13.1182 10.0597 13.052 10.2254 12.9325 10.3492L10.3075 12.9742C10.2466 13.0352 10.1743 13.0836 10.0947 13.1166C10.015 13.1496 9.92969 13.1666 9.8435 13.1665Z" fill="white"/>
<path d="M10.5 17.104C9.33186 17.104 8.18994 16.7576 7.21867 16.1086C6.24739 15.4596 5.49037 14.5372 5.04334 13.458C4.59631 12.3788 4.47935 11.1912 4.70724 10.0455C4.93513 8.8998 5.49765 7.84741 6.32365 7.02141C7.14966 6.1954 8.20205 5.63289 9.34775 5.40499C10.4935 5.1771 11.681 5.29406 12.7602 5.74109C13.8395 6.18812 14.7619 6.94514 15.4109 7.91642C16.0599 8.8877 16.4063 10.0296 16.4063 11.1978C16.4045 12.7637 15.7817 14.2649 14.6744 15.3722C13.5672 16.4794 12.0659 17.1023 10.5 17.104ZM10.5 6.60401C9.59144 6.60401 8.70329 6.87342 7.94785 7.37819C7.19241 7.88296 6.60362 8.60041 6.25593 9.4398C5.90824 10.2792 5.81727 11.2029 5.99452 12.094C6.17177 12.9851 6.60928 13.8036 7.25173 14.446C7.89418 15.0885 8.71271 15.526 9.60381 15.7032C10.4949 15.8805 11.4186 15.7895 12.258 15.4418C13.0974 15.0941 13.8148 14.5053 14.3196 13.7499C14.8243 12.9945 15.0938 12.1063 15.0938 11.1978C15.0924 9.97984 14.6079 8.81221 13.7467 7.95102C12.8855 7.08983 11.7179 6.6054 10.5 6.60401Z" fill="white"/>
</svg>
